<?xml version="1.0" encoding="utf-8"?>
<!-- Generator: Adobe Illustrator 19.2.1, SVG Export Plug-In . SVG Version: 6.00 Build 0)  -->
<svg version="1.1" id="layer" xmlns="http://www.w3.org/2000/svg" xmlns:xlink="http://www.w3.org/1999/xlink" x="0px" y="0px"
	 viewBox="0 0 652 652" style="enable-background:new 0 0 652 652;" xml:space="preserve">
<style type="text/css">
	.st0{fill:#3B55A5;}
</style>
<g>
	<path class="st0" d="M226.7,320.4c-0.7-18,13.4-33.1,31.4-33.8h1.3c16.6,0,26.4,9.7,29.3,21.1l-10.4,3.5
		c-1.9-8.8-10-14.9-18.9-14.2c-10.7,0-21.5,7.8-21.5,23.6c0,15.8,10.5,23.3,21.6,23.3c9,0.2,17-5.7,19.4-14.3l10.1,3.3
		c-3.6,13.2-15.9,22.2-29.6,21.5c-17.8,0.3-32.5-13.8-32.8-31.6C226.6,322,226.6,321.2,226.7,320.4"/>
	<path class="st0" d="M309.2,352.9h-10.9v-66.5h10.9v26.1c3.1-3.7,7.8-5.8,12.7-5.6c11,0,16.4,7.9,16.4,17.7v28.3h-10.6v-26.5
		c0.7-4.7-2.6-9.1-7.3-9.8c0,0,0,0,0,0c-0.6-0.1-1.3-0.1-1.9,0c-5.1,0-9.3,4.2-9.3,9.3c0,0.3,0,0.5,0,0.8L309.2,352.9z"/>
	<path class="st0" d="M361.9,327.3l11.5-1.8c2.6-0.3,3.3-1.7,3.3-3.2c0-3.8-2.5-6.8-8.5-6.8c-4.6-0.4-8.7,3-9.2,7.6v0.4l-9.7-2.2
		c0.8-7.7,7.8-14.6,18.8-14.6c13.8,0,19,7.8,19,16.9v22.2c0,2.4,0.1,4.8,0.6,7.2h-9.9c-0.4-1.9-0.5-3.8-0.4-5.7
		c-3,4.6-8.3,7.3-13.8,7.1c-7.7,0.6-14.4-5-15.2-12.7V341C348.3,332.7,354.2,328.4,361.9,327.3 M376.6,334.5v-2l-11.7,1.7
		c-3.3,0.1-5.9,2.8-6,6.1c0,3.3,2.7,5.9,6,5.8h0h0.5c5.6,0.7,10.7-3.4,11.3-9c0-0.1,0-0.1,0-0.2
		C376.9,336.1,376.8,335.3,376.6,334.5L376.6,334.5z"/>
	<path class="st0" d="M405.2,285.5c3.8,0,7,3,7.1,6.9c0,3.8-3.1,6.9-6.9,7c-3.8,0-6.9-3.1-7-6.9
		C398.3,288.6,401.4,285.5,405.2,285.5 M400,353.1v-44.9h10.7v44.7L400,353.1z"/>
	<path class="st0" d="M434.9,352.9h-10.7v-44.7h10.4v6c2.8-4.6,7.8-7.4,13.2-7.3c10.9,0,16.1,7.9,16.1,17.7v28.3h-10.6v-26.5
		c0-5.5-2.5-9.9-9.2-9.9c-5.2,0-9.4,4.3-9.4,9.5c0,0.4,0,0.7,0,1.1L434.9,352.9z"/>
	<rect x="477" y="286.4" class="st0" width="10.6" height="66.5"/>
	<path class="st0" d="M506.7,285.5c3.8,0,6.9,3.1,7,6.9c0,3.8-3.1,6.9-6.9,7c-3.8,0-6.9-3.1-7-6.9v-0.1
		C499.8,288.6,502.8,285.5,506.7,285.5 M501.4,353.1v-44.9h10.6v44.7L501.4,353.1z"/>
	<path class="st0" d="M536.4,352.9h-10.6v-44.7h10.4v6c2.8-4.6,7.8-7.4,13.2-7.3c10.9,0,16.2,7.9,16.2,17.7v28.3h-10.6v-26.5
		c0.7-4.7-2.6-9.1-7.3-9.8c0,0,0,0,0,0c-0.6-0.1-1.3-0.1-1.9,0c-5.2,0-9.4,4.2-9.3,9.4c0,0.4,0,0.8,0,1.1L536.4,352.9z"/>
	<polygon class="st0" points="601.9,327 620.7,352.9 607.6,352.9 594.5,334.4 589,340.2 589,352.9 578.4,352.9 578.4,286.4 
		589,286.4 589,326.2 606.2,308.2 620.3,308.2 	"/>
	<path class="st0" d="M100.5,268.4l46.1,26.5V348l-45.9,26.6l-46.1-26.2v-53.3L100.5,268.4z M100.5,229.4l-16.9,9.8l-46,26.7
		l-16.9,9.8v92.1l16.9,9.7l46.1,26.4l16.9,9.7l16.9-9.8l45.9-26.7l16.9-9.8v-92.2l-16.9-9.7l-46.1-26.5L100.5,229.4L100.5,229.4z"/>
</g>
</svg>
