<?xml version="1.0" encoding="utf-8"?>
<!-- Generator: Adobe Illustrator 25.0.1, SVG Export Plug-In . SVG Version: 6.00 Build 0)  -->
<svg version="1.0" id="katman_1" xmlns="http://www.w3.org/2000/svg" xmlns:xlink="http://www.w3.org/1999/xlink" x="0px" y="0px"
	 viewBox="0 0 340.6 222.6" style="enable-background:new 0 0 340.6 222.6;" xml:space="preserve">
<style type="text/css">
	.st0{fill-rule:evenodd;clip-rule:evenodd;fill:#AAADC0;}
	.st1{fill-rule:evenodd;clip-rule:evenodd;fill:#A9ACBF;}
	.st2{fill-rule:evenodd;clip-rule:evenodd;fill:#DADEEF;}
	.st3{fill-rule:evenodd;clip-rule:evenodd;fill:#FCFDFB;}
	.st4{fill-rule:evenodd;clip-rule:evenodd;fill:#7E8295;}
	.st5{fill-rule:evenodd;clip-rule:evenodd;fill:#FFFEFC;}
	.st6{fill-rule:evenodd;clip-rule:evenodd;fill:#8D90A3;}
</style>
<g>
	<path class="st0" d="M69.3,73.1c21.2,0,38.3,17.1,38.3,38.4c0,21-17.3,38.3-38.6,38.2c-20.6-0.2-37.9-17.2-37.9-38.3
		C31.1,90.2,48.1,73,69.3,73.1z M40.2,131.4c0,0.4,0.2,0.6,0.4,0.9c1.5,2.1,3.2,4.1,5.2,5.8c0.9,0.8,1.8,1.6,2.8,2.3
		c2.8,1.8,5.7,3.5,8.9,4.6c2.6,0.9,5.3,1.6,8,1.9c2.1,0.2,4.3,0.3,6.4,0c1.2-0.2,2.5-0.2,3.7-0.7c0.2,0.1,0.3-0.1,0.4-0.1
		c2.5-0.4,4.9-1.2,7.3-2.2c7.8-3.4,13.7-8.9,17.5-16.5c3.4-6.7,4.5-13.8,3.4-21.2c-1-7.1-4-13.3-8.8-18.5C89,80.4,80.8,76.6,71.1,76
		c-4.3-0.3-8.6,0.3-12.7,1.7c-6.7,2.2-12.2,6-16.7,11.5c-5.1,6.3-7.6,13.5-7.9,21.5c-0.1,2,0.1,3.9,0.4,5.9
		c0.6,4.5,2.1,8.8,4.4,12.7C39.2,129.9,39.6,130.7,40.2,131.4z"/>
	<path class="st1" d="M75.6,146.1c-1.2,0.6-2.5,0.6-3.7,0.7c-2.1,0.3-4.3,0.2-6.4,0c-2.7-0.3-5.4-1-8-1.9c-3.2-1.1-6.1-2.8-8.9-4.6
		c-1-0.7-1.9-1.5-2.8-2.3c-2-1.7-3.7-3.7-5.2-5.8c-0.2-0.3-0.4-0.6-0.4-0.9c2.4-5.4,3.3-11.1,3.8-16.9c0.2-2.7,0.3-5.4,0.8-8.1
		c0.5-3.1,1.7-5.9,3.9-8.3c2-2.1,4.5-3.5,7.2-4.5c2.2-0.9,4.5-1.7,7-1.8c2.3-0.1,4.5,0.2,6.7,0.7c3.3,0.8,6.6,1.8,9.7,3.3
		c2.5,1,5.1,2,7.7,2.8c2.7,0.8,5.4,1.7,7.7,3.4c2.9,2.2,3.7,5,2.4,8.4c-0.8,2.1-2.3,3.7-3.8,5.3c-2.7,2.8-5.6,5.4-8.2,8.3
		c-3,3.5-5.7,7.1-7.6,11.3C75.9,138.7,75,142.3,75.6,146.1L75.6,146.1z M94.9,113.2c-0.1,0-0.2,0-0.3,0.1c-0.1,0-0.2,0.1-0.2,0.2
		c0,0,0,0,0,0.1c0.1,0,0.2-0.1,0.2-0.2L94.9,113.2C95,113.2,95.1,113.2,94.9,113.2C95,113.1,94.9,113.2,94.9,113.2z M64.3,95.8
		c-3.8,0-6.9,3.1-6.9,6.8c0,3.8,3.1,6.8,6.8,6.9c3.8,0,6.8-3.1,6.9-6.9C71.1,98.8,68.1,95.8,64.3,95.8
		C64.3,95.8,64.3,95.8,64.3,95.8L64.3,95.8z M69.9,116.8c0.6,0.9,1.7,1.7,3,2.1c2.6,0.9,5.2,0.9,7.8,0.4c4.6-0.9,8.9-2.5,12.8-5.1
		c0.2-0.2,0.6-0.2,0.7-0.6c-0.2-0.1-0.3,0-0.4,0.1c-1.3,0.8-2.7,1.4-4.1,2c-3.6,1.5-7.4,2.5-11.4,2.7
		C75.4,118.6,72.5,118.4,69.9,116.8z M88.8,110.9c0.8,0,1.5-0.7,1.5-1.6c0-0.8-0.7-1.5-1.6-1.4c-0.8,0-1.4,0.7-1.4,1.5
		C87.3,110.3,87.9,110.9,88.8,110.9z"/>
	<path class="st2" d="M69.5,92.4c-2.2-0.4-4.4-0.8-6.7-0.7c-2.5,0.1-4.7,0.9-7,1.8c-2.7,1-5.2,2.4-7.2,4.5c-2.2,2.3-3.4,5.1-3.9,8.3
		c-0.4,2.7-0.5,5.4-0.8,8.1c-0.5,5.8-1.4,11.6-3.8,16.9c-0.7-0.6-1.1-1.5-1.5-2.2c-2.3-3.9-3.8-8.2-4.4-12.7c-0.3-2-0.5-3.9-0.4-5.9
		c0.3-8,2.8-15.2,7.9-21.5c4.4-5.5,10-9.3,16.7-11.5c4.1-1.3,8.4-1.9,12.7-1.7c9.6,0.6,17.8,4.5,24.3,11.6
		c4.8,5.3,7.7,11.5,8.8,18.5c1.1,7.4,0,14.5-3.4,21.2c-3.8,7.6-9.7,13.1-17.5,16.5c-2.3,1-4.7,1.8-7.3,2.2c-0.2,0-0.3,0.3-0.4,0.1
		c-0.6-3.8,0.3-7.4,1.8-10.9c1.9-4.2,4.6-7.8,7.6-11.3c2.5-2.9,5.4-5.6,8.2-8.3c1.6-1.6,3-3.2,3.8-5.3c1.4-3.4,0.6-6.2-2.4-8.4
		c-2.3-1.7-5-2.6-7.7-3.4c-2.6-0.8-5.2-1.8-7.7-2.8c-0.5-1.7-1.7-2.8-3.3-3.4C73.8,91.6,71.7,91.8,69.5,92.4z M102.2,113.7l0.2,0
		c0.4-1.4,0.4-2.9,0.4-4.4c0-1.7-0.2-3.4-0.5-5.1c-1.1-5.5-3.6-10.3-7.5-14.4c-2.4-2.5-5.1-4.6-7.8-6.8c-2.4-2-5-3.5-8-4.3
		c-2.9-0.7-5.7-1.1-8.7-0.6c-0.2,0-0.4,0-0.4,0.2c0,0.2,0.2,0.2,0.4,0.2c4.4,0.8,8.6,2.2,12.7,3.8c4,1.6,7.4,3.9,9.9,7.5
		c1.7,2.5,3.3,5.1,4.6,7.9c1.7,3.8,3,7.7,3.8,11.7C101.7,111,102,112.3,102.2,113.7z"/>
	<path class="st3" d="M64.3,95.8c3.8,0,6.8,3.1,6.8,6.8c0,0,0,0,0,0c0,3.8-3.1,6.8-6.9,6.9c-3.8,0-6.8-3.1-6.8-6.9
		C57.4,98.8,60.5,95.8,64.3,95.8C64.3,95.8,64.3,95.8,64.3,95.8z M69.1,102.7c0-2.7-2.1-4.8-4.8-4.8c-2.7,0-4.8,2.1-4.8,4.8
		c0,2.6,2.1,4.8,4.7,4.8c0,0,0.1,0,0.1,0C66.9,107.5,69,105.4,69.1,102.7C69.1,102.7,69.1,102.7,69.1,102.7L69.1,102.7z"/>
	<path class="st4" d="M69.9,116.8c2.6,1.6,5.5,1.8,8.4,1.7c4-0.2,7.8-1.1,11.4-2.7c1.4-0.6,2.8-1.2,4.1-2c0.1-0.1,0.2-0.2,0.4-0.1
		c-0.1,0.3-0.4,0.4-0.7,0.6c-3.9,2.6-8.2,4.2-12.8,5.1c-2.6,0.5-5.3,0.5-7.8-0.4C71.6,118.5,70.4,117.7,69.9,116.8L69.9,116.8z
		 M69.5,92.4c2.1-0.6,4.3-0.8,6.4,0c1.6,0.6,2.8,1.7,3.3,3.4C76.2,94.2,72.9,93.2,69.5,92.4z"/>
	<path class="st3" d="M88.8,110.9c-0.8,0-1.5-0.7-1.5-1.5c0-0.8,0.6-1.5,1.4-1.5c0.8,0,1.5,0.6,1.6,1.4
		C90.2,110.2,89.6,110.9,88.8,110.9z"/>
	<path class="st1" d="M94.6,113.4c0,0.1-0.1,0.2-0.2,0.2c0,0,0,0,0,0C94.4,113.4,94.5,113.3,94.6,113.4L94.6,113.4L94.6,113.4z
		 M94.9,113.2l-0.3,0.2l-0.1-0.1C94.7,113.2,94.8,113.2,94.9,113.2C94.9,113.2,94.9,113.2,94.9,113.2z"/>
	<path class="st1" d="M94.9,113.2L94.9,113.2C95.1,113.2,95,113.2,94.9,113.2C94.9,113.2,94.9,113.2,94.9,113.2z"/>
	<path class="st5" d="M102.2,113.7c-0.3-1.4-0.6-2.7-0.8-4.1c-0.8-4.1-2.2-8-3.8-11.7c-1.2-2.8-2.8-5.4-4.6-7.9
		c-2.5-3.6-5.8-5.9-9.9-7.5c-4.2-1.6-8.3-3.1-12.7-3.8c-0.2,0-0.4,0-0.4-0.2c0-0.2,0.2-0.2,0.4-0.2c2.9-0.5,5.8-0.2,8.7,0.6
		c3,0.8,5.6,2.4,8,4.3c2.7,2.2,5.4,4.3,7.8,6.8c3.9,4.1,6.4,8.9,7.5,14.4c0.3,1.7,0.5,3.4,0.5,5.1c0,1.4,0,2.9-0.4,4.4L102.2,113.7z
		"/>
	<path class="st4" d="M69.1,102.7c0,2.6-2.1,4.8-4.7,4.8c0,0-0.1,0-0.1,0c-2.6,0-4.8-2.1-4.8-4.8c0,0,0-0.1,0-0.1
		c0-2.7,2.2-4.8,4.8-4.8S69.1,100,69.1,102.7L69.1,102.7z"/>
	<path class="st6" d="M220.8,122c-0.1,0.1-0.2,0.1-0.3,0.2c-3.1,3.5-7,4.1-11.2,3c-5.2-1.3-8-5-9.1-10.1c-0.7-3.3-0.5-6.6,0.8-9.7
		c2.3-5.5,7.5-8.5,13.4-7.7c2.7,0.4,5.2,1.3,7.1,3.3c1.4,1.5,2.2,3.3,2.5,5.3c0.1,0.4-0.1,0.5-0.4,0.5c-1.2,0-2.5,0-3.7,0
		c-0.3,0-0.4-0.1-0.5-0.4c-0.6-2.7-2.4-4.2-5-4.7c-3-0.6-5.6,0-7.6,2.4c-1.8,2.2-2.3,4.9-2.3,7.7c0,2.1,0.4,4.1,1.3,5.9
		c2.1,4,7.3,5.4,11.2,3.1c2.2-1.3,2.9-3.4,3.1-5.8c0-0.5-0.3-0.4-0.6-0.4c-2,0-3.9,0-5.9,0c-0.6,0-0.7-0.2-0.7-0.7
		c0-0.8,0-1.5,0-2.3c0-0.5,0.2-0.6,0.6-0.6c3.4,0,6.9,0,10.3,0c0.4,0,0.6,0.1,0.6,0.5c0,4.4,0,8.7,0,13.1c0,0.4-0.1,0.5-0.5,0.5
		c-0.8,0-1.8,0.2-2.4-0.1c-0.6-0.4-0.4-1.4-0.6-2.2C220.9,122.5,220.8,122.2,220.8,122z M141.6,106.8c-0.6,0-1.2,0-1.9,0
		c-0.4,0-0.5-0.1-0.6-0.5c-0.8-2.8-2.6-4.5-5.5-4.8c-3.2-0.3-5.9,0.7-7.5,3.6c-2.4,4.4-2.3,8.9,0.1,13.2c1.6,2.9,5.1,4.2,8.3,3.3
		c2.8-0.8,4.1-2.9,4.7-5.6c0.2-1.1,0.2-1.1,1.3-1.1c1,0,2,0,3,0c0.4,0,0.5,0.1,0.4,0.5c-0.5,5.3-3.9,9.4-9.1,10.2
		c-7.5,1.2-13.7-3.4-14.9-10.9c-0.5-3.3-0.2-6.5,1.1-9.6c2.3-5.2,7.4-8,13.1-7.3c2.7,0.4,5.2,1.3,7.2,3.3c1.4,1.5,2.2,3.3,2.5,5.3
		c0.1,0.4,0,0.5-0.4,0.5C142.9,106.7,142.2,106.8,141.6,106.8z M288.8,125c-1.7,0-3.2,0-4.8,0c-0.4,0-0.6-0.2-0.7-0.5
		c-1.7-2.8-3.5-5.5-5.2-8.3c-0.3-0.5-0.4-0.5-0.9-0.1c-1.7,1.2-2.4,2.8-2.1,4.9c0.2,1.1,0,2.3,0,3.5c0,0.5-0.2,0.6-0.6,0.6
		c-1,0-2,0-3,0c-0.5,0-0.6-0.2-0.6-0.7c0-4.1,0-8.2,0-12.4c0-4.3,0-8.6,0-13c0-0.7,0.2-0.9,0.9-0.8c0.9,0.1,1.8,0.1,2.7,0
		c0.6,0,0.7,0.2,0.7,0.7c0,4.5,0,9,0,13.5v0.8l0.2,0.1c0.3-0.4,0.7-0.8,1-1.2c2-2.1,4-4.1,6.1-6.2c0.2-0.2,0.4-0.4,0.7-0.4
		c1.6,0,3.2,0,4.8,0c0,0.3-0.3,0.4-0.4,0.6c-2.1,2-4.1,4-6.3,6c-0.5,0.4-0.5,0.7-0.1,1.3c2.4,3.6,4.8,7.2,7.2,10.8
		C288.4,124.5,288.6,124.7,288.8,125L288.8,125z M239.4,116.4c-2.2,0-4.3,0-6.5,0c-0.5,0-0.6,0.1-0.6,0.6c0.2,3.9,3.8,6.3,7.4,4.8
		c1-0.4,1.8-1.2,2.2-2.3c0.2-0.5,0.5-0.6,0.9-0.6c0.9,0,1.9,0,2.8,0c0.5,0,0.6,0.1,0.4,0.6c-1.1,3.5-3.5,5.4-7.1,5.9
		c-3.2,0.5-6.2-0.2-8.5-2.6c-1.6-1.7-2.3-3.9-2.5-6.2c-0.2-2.8,0.2-5.5,2-7.9c2.3-3,5.4-4.1,9-3.5c3.8,0.7,6.1,3.1,7.2,6.7
		c0.4,1.3,0.5,2.6,0.4,4c0,0.5-0.2,0.6-0.6,0.6C243.8,116.4,241.6,116.4,239.4,116.4z M237.3,113.6c1.5,0,3,0,4.4,0
		c0.5,0,0.6-0.1,0.5-0.6c-0.4-2.6-2.3-4.5-4.8-4.6c-2.6-0.1-4.7,1.7-5.1,4.4c-0.1,0.5,0,0.7,0.6,0.7
		C234.4,113.6,235.8,113.6,237.3,113.6L237.3,113.6z M146.8,115.3c0-1.2,0.2-2.5,0.5-3.7c1.3-4.2,5-6.8,9.6-6.5
		c3.5,0.2,6.4,1.4,8.1,4.5c2,3.8,2,7.8-0.1,11.5c-1.9,3.5-5.2,4.6-9,4.4C150.2,125.2,146.8,121.3,146.8,115.3z M151.1,115.3
		c0,1.7,0.3,3.2,1.3,4.6c1.6,2.3,4.7,3,7,1.4c0.5-0.4,1-0.8,1.4-1.3c1.7-2.5,1.8-6.7,0-9.3c-2.1-3-6.5-3-8.5,0.1
		C151.4,112.1,151.1,113.7,151.1,115.3z M289.9,115.4c0-2.8,0.6-5.3,2.5-7.4c1.9-2.2,4.5-3,7.3-3c2.8,0,5.4,0.8,7.4,3
		c2.1,2.4,2.6,5.3,2.4,8.4c-0.1,1.1-0.3,2.2-0.7,3.2c-1.5,3.9-5.1,6.1-9.7,5.8c-5.4-0.3-8.8-3.8-9.1-9.2
		C290,116,289.9,115.6,289.9,115.4L289.9,115.4z M305.2,115.6c0-2-0.5-3.7-1.2-4.9c-1.5-2.4-4.7-3-7-1.5c-0.6,0.4-1.1,0.9-1.5,1.5
		c-1.7,2.5-1.6,6.7,0,9.1c1.6,2.3,4.7,3,7,1.4c0.6-0.4,1-0.8,1.4-1.4C304.9,118.5,305.2,116.9,305.2,115.6z M183,108.3
		c1.2-1.5,2.6-2.6,4.5-3.1c1.7-0.4,3.4-0.3,5,0.4c2.4,1,3.4,3.1,3.5,5.6c0.1,4.4,0,8.8,0,13.2c0,0.5-0.1,0.6-0.6,0.6c-1,0-2,0-3,0
		c-0.5,0-0.7-0.1-0.7-0.7c0-3.7,0-7.5,0-11.2c0-0.8-0.1-1.6-0.3-2.3c-0.6-2-2.5-2.8-4.8-2.2c-2,0.6-3.3,2.4-3.3,4.7
		c0,3.6,0,7.3,0,10.9c0,0.6-0.1,0.9-0.8,0.8c-0.9-0.1-1.9-0.1-2.8,0c-0.5,0-0.7-0.1-0.7-0.7c0-2.8,0-5.5,0-8.3c0-3.2,0-6.4,0-9.6
		c0-0.7,0.2-0.9,0.9-0.8c0.9,0.1,1.7,0,2.6,0c0.5,0,0.7,0.1,0.6,0.6C183,106.9,183,107.6,183,108.3L183,108.3z M265,112.1
		c-0.1,0-0.2,0-0.3,0c-1.1,0.1-1.8,0-2.3-1.3c-1.2-3-6-3.1-8-0.3c-0.7,0.9-1,2-1.2,3.2c-0.2,1.9-0.2,3.8,0.6,5.6
		c1,2.2,2.8,3.2,5.1,2.9c1.9-0.3,3.2-1.5,3.7-3.6c0.1-0.6,0.4-0.8,1-0.7c1,0,1.9,0,2.9,0c0.5,0,0.6,0.2,0.5,0.6
		c-1,4.8-4.4,7.5-9.4,7.2c-5-0.3-8.3-3.6-8.7-8.7c-0.2-2.2,0-4.4,0.9-6.5c1.5-3.5,4.9-5.5,8.9-5.3c2.4,0.1,4.6,0.7,6.4,2.4
		c1.1,1.1,1.7,2.5,2,4c0.1,0.5-0.1,0.7-0.6,0.6C266.1,112.1,265.6,112.1,265,112.1z M174.3,115.4c0,2.9,0,5.8,0,8.7
		c0,0.8-0.2,1-0.9,0.9c-0.9-0.1-1.7-0.1-2.6,0c-0.6,0-0.8-0.1-0.8-0.8c0-5.2,0-10.4,0-15.6c0-0.8,0-1.6,0-2.4c0-0.5,0.1-0.6,0.6-0.6
		c1,0,2,0,3,0c0.6,0,0.8,0.1,0.8,0.8C174.3,109.4,174.3,112.4,174.3,115.4z M172.3,98.2c0.6,0.1,1.5-0.3,1.9,0.1
		c0.4,0.4,0.1,1.3,0.1,2c0,0.6,0.3,1.4-0.1,1.8c-0.4,0.4-1.2,0.1-1.8,0.1c-0.8,0-1.8,0.3-2.3-0.1c-0.4-0.5-0.1-1.5-0.1-2.2
		c0-1.7,0-1.7,1.7-1.7C171.7,98.2,172.3,98.2,172.3,98.2z"/>
</g>
</svg>
